<svg width="1920" height="38" viewBox="0 0 1920 38" fill="none" xmlns="http://www.w3.org/2000/svg">
<path d="M1906.68 16.3218C1905.03 13.8045 1902.73 15.8311 1900.85 15.073C1900.23 15.6981 1899.97 16.7815 1898.98 16.5495C1896.99 13.7578 1893.97 14.2867 1891.53 12.7127C1891.11 12.8173 1891.09 14.1227 1890.29 13.1794C1890.19 13.0196 1889.97 12.6759 1889.26 11.5643C1888.77 12.8909 1888.31 14.117 1887.85 15.3587C1885.75 11.9801 1882.67 15.5836 1880.84 12.4878C1879.84 14.5597 1877.66 12.9206 1876.72 15.1381C1876.22 14.6021 1875.94 13.697 1875.12 13.7394C1871.43 13.9303 1868.33 16.8536 1864.99 17.9624C1862.34 14.786 1858.69 18.5153 1856.01 14.6785C1854.17 19.0414 1850.6 14.5017 1848.51 18.0048C1845.73 16.3049 1842.91 17.7064 1840.85 19.6312C1838.31 22.0128 1835.19 18.8887 1833.23 22.529C1832.52 21.836 1832.01 21.3339 1831.47 20.8106C1830.24 20.9874 1829.17 23.4977 1827.96 22.1542C1826.46 20.491 1824.89 20.7286 1823.33 20.8983C1821.73 21.0709 1820.49 19.8843 1819.43 18.8194C1817.93 17.3019 1816.8 15.0349 1814.9 17.7488C1812.33 15.4464 1809.88 19.1942 1807.29 18.0585C1806.57 17.7403 1805.79 17.9567 1805.03 18.8547C1803.95 20.1474 1802.6 19.3455 1801.03 19.1249C1800.67 18.3428 1800.24 17.4037 1799.47 15.742C1798.73 17.473 1798.22 18.678 1798.16 18.8052C1795.87 20.525 1795.15 17.6328 1793.86 17.9793C1791.56 20.4543 1789.34 19.6892 1786.99 17.9143C1786.67 18.2806 1786.31 19.0443 1785.94 19.0513C1781.49 19.1362 1777.03 19.1051 1771.95 19.1051C1771.71 18.5323 1771.2 17.3203 1770.78 16.3105C1768.63 17.7361 1766.93 19.1885 1765.04 17.0714C1763.76 15.643 1761.74 17.7417 1760.59 15.0914C1759.63 12.8612 1757.05 14.2542 1756.15 11.5615C1753.1 11.3606 1750.35 7.8816 1746.99 10.3735C1745.3 11.6237 1742.92 11.8514 1741.4 10.2476C1739.47 8.21112 1738.42 10.5545 1737.3 10.8628C1735.31 9.83468 1733.57 8.94229 1731.83 8.04565C1730.26 10.5319 1728.7 9.68901 1727.23 7.94948C1725.62 9.72719 1723.91 10.399 1722.28 8.8051C1721.31 7.85614 1720.4 8.09798 1719.47 8.14606C1716.07 8.32426 1712.96 6.68373 1709.77 5.26666C1709.42 5.72346 1709.06 6.19299 1708.51 6.91567C1707.91 5.84226 1707.31 4.74056 1706.78 3.78735C1704.22 3.78735 1701.9 3.78735 1698.6 3.78735C1698.47 3.33621 1698.07 1.97429 1697.91 1.44536C1696.33 0.519029 1696.19 2.61777 1695.2 2.43251C1694.27 2.92325 1694.17 0.694395 1693.19 1.03806C1692.64 0.363461 1691.99 0.223451 1691.36 0.667525C1686.61 4.02778 1681.79 3.10286 1676.82 1.70558C1673.3 0.717023 1669.47 0.380432 1666.04 1.67588C1657.51 4.90178 1651.69 1.12998 1643.43 0C1642.76 0 1640.2 1.0819 1639.53 1.0819C1639.26 3.12973 1637.43 2.28825 1636.66 3.96696C1634.38 3.24994 1631.8 5.13372 1629.66 2.54706C1629.14 2.9883 1628.89 4.01646 1628.06 3.87928C1625.28 3.42389 1622.65 4.36012 1620.2 6.05156C1618.75 7.05851 1617.02 7.28337 1615.94 6.53948C1612.24 3.98676 1608.77 5.32888 1605.67 6.71202C1603.75 6.65545 1603.55 3.7916 1601.73 3.87504C1600.04 2.79314 1599.79 6.27077 1598.4 6.69646C1596.7 6.69646 1595.01 6.95103 1593.38 6.62716C1591.64 6.2835 1590.58 8.60145 1588.77 8.21678C1586.05 7.63835 1583.3 8.00181 1581.39 11.2263C1579.22 8.99603 1577.38 11.635 1575.42 11.0368C1573.32 10.3947 1571.29 11.3309 1569.78 13.6008C1566.42 14.8991 1563.59 11.058 1560.5 12.4044C1560.06 11.0962 1560.35 9.98034 1559.58 9.53203C1558.61 8.96491 1558.27 10.4937 1557.55 10.7808C1556.95 9.19968 1555.89 9.54617 1554.92 9.5292C1553.78 9.51081 1552.63 9.52496 1551.65 9.52496C1550.54 7.94948 1549.61 6.61161 1548.92 5.64143C1547.56 4.82117 1546.19 6.09541 1545.34 4.72924C1543.96 2.5018 1542.17 6.12086 1540.9 3.86797C1536.68 6.22269 1532.48 6.01055 1528.21 3.95565C1527.4 3.56956 1526.34 3.69967 1525.34 4.24416C1522.22 5.93984 1519.01 7.26075 1515.2 6.55079C1514.73 7.54077 1514.18 8.70186 1513.86 9.36373C1511.74 9.53627 1510.04 9.31848 1508.47 9.86155C1499.16 13.0846 1493.64 14.6629 1487.45 13.7776C1486.95 13.7069 1486.34 13.5004 1485.97 13.8115C1483.51 15.8778 1480.62 16.2143 1477.99 17.2213C1475.15 18.3018 1472.92 20.5236 1470.39 22.1231C1469.42 22.7354 1468.9 23.8414 1468.07 24.4481C1464.46 27.0984 1460.05 25.9529 1456.54 29.1759C1453.02 26.3064 1449.12 28.9086 1445.48 27.6754C1444.89 26.8424 1444.3 26.0094 1443.65 25.0817C1440.39 25.0817 1437.06 24.9473 1433.74 25.1184C1430.39 25.2924 1428.02 21.7483 1424.92 20.6155C1424.06 21.7257 1423.23 22.7765 1422.07 24.2699C1421.35 22.0269 1419.47 22.8019 1418.67 20.9111C1413.79 20.5419 1409.04 20.566 1404.76 24.7451C1403.82 25.6643 1402.22 25.6346 1401.11 24.2982C1400.07 23.0296 1398.49 23.1866 1397.87 23.8202C1396.35 25.3942 1394.76 25.2754 1393.21 24.994C1391.47 24.6758 1390.16 26.7689 1388.63 26.4125C1385.78 25.7492 1383.18 27.4958 1380.58 28.2369C1378.73 28.7615 1376.64 28.8634 1374.73 30.3413C1372.47 32.0879 1369.74 33.2688 1367.18 33.372C1364.36 33.4865 1361.41 34.8287 1358.51 32.3551C1357.5 31.4953 1355.38 31.2379 1353.86 33.1203C1352.99 34.2106 1351.67 33.529 1350.55 33.4484C1349.96 32.6125 1349.37 31.7781 1348.78 30.9437C1347.47 30.1843 1345.74 31.7541 1344.72 29.446C1340.82 28.6484 1337.1 26.4422 1333.08 26.4606C1331.99 26.4662 1330.96 26.6656 1329.83 25.5682C1328.45 24.2331 1326.89 25.1849 1325.37 26.3998C1323.73 27.7164 1322.3 23.6703 1320.42 25.3942C1320.14 25.646 1319.97 26.2668 1319.7 26.3503C1316.88 27.1974 1314.02 28.7983 1311.23 28.5735C1306.62 28.2001 1302.01 27.1352 1297.39 26.5143C1291.54 25.728 1285.57 28.0304 1279.79 25.1199C1279.2 24.8215 1278.21 24.6786 1277.84 25.1481C1276.04 27.4576 1273.63 26.6883 1271.57 27.6853C1269.48 28.6979 1266.96 27.9088 1264.62 27.9088C1263.12 27.2978 1262.25 24.9204 1260.45 25.0534C1258.79 25.1764 1256.97 24.4933 1255.49 25.2316C1253.73 26.1084 1252.37 21.4753 1250.73 24.9105C1249.29 21.9505 1247.97 25.0364 1246.61 25.1623C1241.07 25.6771 1235.72 24.1808 1230.53 21.8643C1229.27 21.3014 1228.07 20.7159 1226.85 20.9054C1224.2 21.3212 1221.72 20.2209 1219.39 18.9552C1217.12 17.7191 1215.19 17.8351 1212.93 18.8703C1205.08 22.4639 1206.17 23.4581 1197.66 19.7556C1194.57 18.4135 1191.7 15.5256 1187.79 16.7899C1187.41 15.6741 1187.05 14.6459 1186.77 13.8384C1184.72 15.8537 1182.82 15.6925 1181.07 14.3277C1179.76 13.3095 1178.14 13.2671 1177.29 13.9346C1175 15.725 1172.54 14.6969 1170.3 15.4068C1169.79 19.5322 1167.45 20.5349 1165.37 20.6763C1162.76 20.8517 1160.35 21.6083 1158.05 23.1314C1157.4 23.5642 1156.83 23.6731 1156.2 23.6448C1153.7 23.5288 1152.14 25.8666 1150.45 27.9059C1148.21 28.029 1145.88 27.1818 1143.65 29.9113C1143.18 27.3162 1141.88 28.0671 1140.78 27.8861C1139.52 27.6796 1137.89 29.1632 1137.4 28.7106C1136.09 27.5099 1134.85 28.0954 1133.6 27.9427C1132.27 27.7815 1130.93 27.8267 1129.6 27.9229C1126.51 28.1449 1123.66 25.6233 1120.53 26.4196C1119.09 24.0068 1116.88 24.5103 1115.48 25.2712C1112.42 26.9287 1109.38 26.2329 1106.34 26.4945C1105.69 26.5497 1105.01 26.4804 1104.42 26.7618C1101.09 28.3344 1097.7 29.5762 1094.17 29.282C1089.41 28.886 1084.85 31.7527 1080.08 30.7189C1079.43 30.5789 1079.27 31.5985 1078.86 31.689C1076.01 32.317 1073.71 34.6533 1070.57 36.6728C1068.2 35.4467 1064.24 33.5021 1063.37 32.4329C1060.6 30.2083 1058.04 35.3859 1055.28 32.556C1053.13 35.0606 1050.14 32.1077 1047.92 34.8598C1047.48 35.4085 1046.15 35.0238 1045.14 34.4921C1041.86 32.7695 1038.46 33.1584 1035.1 34.2361C1033.13 34.8697 1031.19 35.6659 1029.24 36.3872C1027.18 33.3409 1025.12 36.1807 1023.07 36.3872C1019.78 33.6237 1016.16 33.1924 1012.62 33.587C1011.27 31.8078 1009.96 31.5646 1008.28 31.5009C1006.76 31.443 1004.96 30.0358 1003.62 28.968C1001.8 27.5227 1000.09 28.5522 998.447 27.7405C997.466 26.1282 995.989 25.9019 994.746 24.9671C994.332 25.4791 993.967 25.9316 993.601 26.3842C993.026 26.1325 992.868 24.837 991.542 25.2259C989.059 28.6116 985.173 28.8973 981.501 30.8433C980.946 29.8491 980.334 28.7502 979.854 27.8875C977.874 27.8875 975.665 28.8139 974.68 27.657C973.404 26.1551 971.612 27.4901 970.776 25.3886C969.735 26.5383 968.529 26.568 967.281 26.5072C965.783 26.4351 964.282 26.4973 962.783 26.4874C962.155 26.4832 962.084 28.0007 961.089 27.4689C960.921 27.4336 960.898 26.09 960.258 26.8947C959.663 28.0714 960.595 29.7784 959.155 31.0639C954.327 28.3811 949.077 26.3262 943.451 25.4338C942.057 27.5863 940.073 26.008 938.218 26.602C937.547 25.356 937.045 24.4255 936.524 23.4553C932.94 24.8922 929.851 21.2307 926.485 22.3352C926.164 21.2335 925.93 20.4288 925.693 19.6227C925.066 19.2974 924.483 19.1998 924.113 20.1912C924.505 20.9012 925.2 21.3438 924.998 22.792C924.819 23.0975 924.512 23.6038 924.218 24.1271C923.183 25.9656 921.372 24.137 920.588 25.2358C919.243 27.1224 917.764 26.5794 916.419 26.3672C915.147 26.1678 914.07 28.0926 913.075 27.1026C911.581 25.6191 910.238 27.9752 909.314 27.3685C905.439 24.8186 902.261 27.6811 898.534 29.5054C898.5 27.097 896.919 27.9314 895.971 27.3346C894.012 26.0999 891.765 25.7747 889.637 25.076C886.985 28.0983 883.891 25.7563 881.05 26.486C880.02 26.7505 879.726 24.1228 878.469 25.1694C877.896 25.9811 877.307 26.8141 876.49 27.9696C872.915 27.3006 869.033 29.1194 865.302 26.8184C864.714 27.6499 864.124 28.4829 863.446 29.4418C862.698 27.022 860.865 27.353 860.01 28.0558C857.659 29.9877 855.237 28.9496 852.864 29.3357C850.002 29.8038 846.985 28.094 844.246 30.6637C843.828 31.0555 842.687 30.9084 842.406 30.4134C841.469 28.7644 840.252 29.1957 839.196 29.3782C836.474 29.8519 834.221 28.3924 832.18 26.4337C830.955 26.8042 830.128 27.8069 828.949 28.0544C827.118 28.4391 825.47 26.3927 823.692 27.6669C822.471 25.2585 820.251 27.616 818.917 25.6502C818.107 24.4566 816.97 24.9219 816.104 25.1722C814.905 25.5187 813.929 27.022 812.499 26.5157C811.414 26.1325 810.177 27.0814 809.164 25.9557C808.274 24.9671 807.262 26.1933 806.166 25.2627C805.181 24.424 803.441 24.6334 802.275 26.3305C801.649 25.356 801.094 24.4933 800.562 23.6632C800.145 24.1709 799.728 25.0675 799.411 25.0011C797.191 24.5372 794.932 25.9797 792.674 24.0917C791.398 23.0239 789.465 22.908 788.05 24.4099C787.096 25.4197 786.25 25.0449 785.323 24.8045C785.107 23.9672 784.895 23.1512 784.631 22.1245C781.932 22.915 779.061 20.9464 776.551 23.4058C773.862 20.2676 770.223 24.0111 767.297 21.0086C766.214 19.8985 764.08 20.829 762.697 20.829C761.176 22.3338 759.959 23.6929 758.217 23.6971C756.969 23.6985 755.518 22.9193 754.596 24.953C753.34 22.2871 752.185 24.4919 750.949 25.0265C750.34 25.291 749.524 25.3829 748.975 25.0223C744.597 22.157 739.719 22.6039 735.222 20.7272C733.201 19.8815 731.322 18.9622 729.322 19.6411C727.299 23.1314 724.169 23.0338 721.738 24.9883C720.371 26.0858 719.046 24.1355 717.606 23.5373C716.723 25.2754 715.115 25.2245 713.993 26.5765C711.176 23.2361 708.782 25.8482 706.341 27.6768C705.496 26.0038 704.171 25.9189 703.319 26.9032C701.919 28.5211 700.582 27.9894 699.212 27.4562C695.906 26.1706 691.186 26.7321 687.778 27.3303C683.317 28.1138 678.878 31.5929 674.207 27.9894C672.743 26.8594 671.128 28.4759 669.83 29.4828C668.98 28.7828 668.569 27.6867 667.566 27.8564C666.415 28.0488 665.234 27.831 664.071 27.9215C663.027 28.0021 662.679 26.0094 661.476 26.4379C660.365 26.8339 659.234 26.585 658.426 25.1679C657.731 26.2074 656.956 27.4025 656.037 25.7789C655.18 24.2642 653.765 25.9076 652.921 24.3378C652.338 23.2516 651.037 25.9726 650.476 23.6802C649.057 26.182 647.1 24.8427 645.381 25.0279C643.558 25.2245 641.399 25.9274 639.962 24.8596C638.084 23.4638 636.763 25.2783 635.214 25.3023C633.704 25.3263 632.95 23.4779 631.648 23.6264C630.315 25.5795 628.595 25.8369 627.22 24.5245C625.61 22.9843 623.767 23.147 622.508 23.847C619.831 25.3334 616.86 24.2558 614.678 26.5878C613.994 25.8213 613.622 25.4013 612.989 24.6899C612.16 25.5045 611.212 26.2117 610.14 26.6317C606.622 28.0134 603.082 28.0742 599.528 27.8281C598.119 27.732 597.056 28.4433 595.978 29.34C594.051 28.0756 592.22 27.9441 590.634 27.5976C588.551 27.1436 586.545 25.9642 584.497 25.0916C584.156 25.5314 583.801 25.9868 583.447 26.4422C582.498 25.1001 581.555 23.7664 580.479 22.2447C579.965 22.2447 579.316 22.2433 578.668 22.2447C578.059 22.2461 578.004 20.6523 577.259 21.1416C576.963 21.5602 576.727 21.894 576.491 22.2277C574.487 19.7132 574.487 19.7132 572.009 18.7614C571.97 17.8874 572.139 16.8578 571.218 16.599C568.011 18.8533 564.615 18.0048 561.247 17.6809C560.316 15.322 559.82 18.3979 558.973 18.0472C557.931 17.6144 557.216 16.2426 555.887 16.4845C554.851 16.6726 554.141 17.4872 553.283 17.8874C552.23 18.3767 550.961 18.166 549.814 17.9581C548.69 17.7545 548.079 19.0443 547.212 19.3511C544.9 20.1714 542.556 21.6337 540.152 20.7527C538.165 20.0243 536.842 22.5912 535.054 22.2235C533.338 21.8727 532.234 19.3865 530.381 19.412C529.901 19.4204 529.376 19.5689 529.054 18.8194C529.272 17.1209 528.272 16.4194 527.639 15.4153C526.347 14.5837 524.715 16.0772 523.506 14.001C523.158 13.4028 521.663 13.3067 521.17 13.8483C518.685 16.5736 515.407 13.813 512.909 16.5099C512.149 17.3288 511.109 16.2539 510.405 15.271C506.158 18.0698 504.837 18.2296 500.022 18.1108C498.381 18.0713 496.725 19.2507 495.108 19.8617C494.873 20.7315 495.136 21.8275 494.075 22.372C492.753 21.4202 491.246 20.3369 489.848 19.3313C488.934 19.7457 488.609 21.3071 487.49 20.7696C487.207 20.409 486.844 19.9508 486.3 19.2578C486.013 21.3382 484.879 20.9266 483.925 20.8064C481.881 20.5476 480.125 19.0103 478.23 18.0953C476.128 17.0813 473.664 19.3016 471.571 16.8578C471.163 16.3812 470.072 17.0219 469.705 16.534C467.568 13.6984 465.551 15.6911 463.488 16.8479C462.557 14.6898 461.183 14.3193 460.113 15.7929C458.17 18.4757 456.836 15.3092 455.248 15.0419C453.392 14.7294 451.921 18.3173 450.306 16.1889C448.957 14.4098 447.397 16.0277 445.735 14.3376C445.556 14.0449 445.024 13.1737 444.525 12.3549C443.909 12.9375 443.628 13.9911 442.658 13.7168C440.433 10.8826 437.421 8.40629 434.635 9.84457C432.338 11.0297 430.831 10.5262 428.863 9.59142C426.764 8.59579 424.614 7.8618 422.291 8.00323C420.266 8.12626 418.279 8.13334 416.13 6.98497C414.024 5.86064 411.446 6.62999 409.446 4.05323C408.937 3.39844 407.511 3.30368 406.808 4.78298C406.443 5.55092 405.915 5.18887 405.694 5.23413C404.287 4.17344 403.057 3.24711 401.889 2.36604C399.384 4.2781 396.893 5.55516 394.106 5.28646C392.736 5.15352 391.378 5.23696 390.145 6.26794C388.936 4.28658 387.324 5.72063 385.936 5.27514C382.315 4.11687 378.976 7.43611 374.353 6.36128C374.321 6.24814 373.952 4.95411 373.436 3.1467C372.426 6.62292 370.622 6.4023 369.142 7.15751C366.607 8.45013 363.906 8.53498 361.334 9.5193C358.115 7.06699 354.659 8.5067 351.472 8.05555C350.361 9.62678 349.419 10.9604 348.435 12.3506C345.626 12.3761 342.638 11.652 340.421 15.1537C339.765 14.2259 339.176 13.3929 338.409 12.3096C335.232 12.741 331.781 11.3069 328.562 13.7578C326.438 12.2262 326.476 12.3761 324.743 13.2515C323.578 13.8398 322.693 15.3135 321.304 15.1961C318.513 14.9599 315.681 15.6699 312.939 14.4409C312.863 15.131 313.146 15.9174 312.11 16.7503C310.003 14.9316 307.973 18.1844 305.578 18.0218C304.546 17.2694 304.152 15.3898 302.585 15.0872C300.77 17.6314 298.549 17.8393 295.927 16.6796C292.642 15.2258 289.687 20.0272 286.258 18.2395C284.939 20.4642 282.81 18.3725 281.681 19.5661C279.834 21.5178 278.489 18.2367 276.932 19.4176C275.285 17.3712 273.251 18.2098 271.534 17.9793C269.515 15.8283 267.641 13.8936 265.661 15.7844C264.731 16.3614 264.821 14.7209 264.063 15.667C263.888 15.9216 263.655 16.2568 263.419 16.599C262.853 15.7646 262.365 14.7025 260.592 15.7165C260.515 15.9018 260.044 17.0615 259.571 18.2197C259.571 17.6951 259.57 17.1718 259.57 16.6471C254.217 17.3189 249.718 15.1961 246.506 9.64375C244.056 10.9208 244.056 10.9208 241.972 9.51788C239.247 11.7071 236.524 11.6746 233.8 9.5193C232.432 10.5234 231.064 11.5275 230.402 12.0126C226.869 10.983 223.973 10.1642 221.629 7.88443C220.887 8.69196 220.6 9.71871 219.808 9.52213C218.42 8.50387 217.051 7.49975 215.939 6.68373C212.917 9.16291 209.977 7.60582 207.321 8.16728C206.524 6.93547 205.965 6.07136 205.224 4.92724C203.482 6.3627 202.008 4.30073 200.569 3.75624C199.994 4.41528 199.659 4.79854 199.334 5.1719C198.661 4.22011 198.071 3.38571 197.461 2.52443C195.242 5.82953 193.054 2.59232 190.477 2.30381C188.156 7.14195 184.012 7.7826 180.365 9.29443C177.53 10.4711 174.236 8.89279 171.317 10.9053C171.061 11.082 170.521 11.0693 170.373 10.8275C169.115 8.77399 166.979 9.84316 165.891 7.89009C165.184 8.5265 164.716 8.95077 164.278 9.34393C163.93 8.85177 163.695 8.51943 163.435 8.15172C162.746 9.0625 162.056 9.97327 160.982 11.3903C160.498 10.2038 160.024 9.04553 159.609 8.02868C158.175 9.26049 158.074 11.0057 157.406 11.775C153.859 15.4096 149.605 12.2248 146.074 14.4069C141.93 16.9681 138.204 12.8103 134.083 13.9162C133.254 17.8252 129.374 15.527 128.549 19.4289C127.37 19.4289 126.373 19.4289 125.337 19.4289C124.158 22.0057 121.721 22.4059 120.439 25.0817C118.781 24.6758 116.99 25.9684 115.353 23.8145C114.814 23.1046 112.989 23.072 112.519 23.7664C110.865 26.206 108.579 24.779 106.668 26.2216C104.99 27.4873 102.457 26.486 100.378 26.486C98.8522 24.0295 96.6185 24.1511 94.8139 22.9037C92.8213 21.5263 90.4976 22.4201 88.374 20.9719C86.5944 19.7585 84.1247 22.14 82.3511 19.4685C81.858 20.0158 81.5649 21.0327 80.1335 20.6721C79.9004 20.1078 79.3972 18.8915 79.2652 18.5719C76.8835 17.3712 75.0639 18.7826 73.3734 16.8536C72.5601 15.9244 70.4105 15.8622 69.5782 16.7475C67.8627 18.5719 66.1322 17.8549 64.4066 17.9652C62.0779 18.1137 59.7412 18.002 57.4075 18.0005C55.688 20.4161 53.5914 21.003 51.2346 20.87C48.2537 20.7032 45.2628 20.8304 42.3769 20.8304C41.6877 21.8035 41.0985 22.6379 40.5094 23.4708C40.0112 23.0353 39.5131 22.5997 38.6118 21.8091C38.2237 25.2047 36.177 22.7934 35.0467 24.0931C34.7536 24.8978 35.0587 26.0193 34.7086 26.2286C31.2445 26.6897 28.3697 27.6301 26.5371 30.1998C21.5806 32.2533 17.3993 28.408 12.965 29.3188C8.48359 30.2366 4.36133 27.056 0 26.52C0 30.5336 0 34.0013 0 37.8C341.11 37.8 682.09 37.8 1023.07 37.8C1037.57 37.8 1052.07 37.7024 1066.56 37.7788C1070.43 37.8 1072.03 37.7038 1072.12 37.5129C1355.42 37.5129 1637.72 37.5129 1920 37.5129C1920 28.1011 1920 18.8109 1920 9.41606C1915.89 13.5598 1910.9 13.3929 1906.68 16.3218Z" fill="#8D330C"/>
</svg>
