<svg width="13" height="15" viewBox="0 0 13 15" fill="none" xmlns="http://www.w3.org/2000/svg">
<path d="M0.787214 6.334L0.00921378 13.334L1.00321 13.445L1.78121 6.444L0.787214 6.334ZM1.50021 15H11.2662V14H1.50021V15ZM12.7572 13.334L11.9792 6.334L10.9852 6.444L11.7632 13.445L12.7572 13.334ZM10.4872 5H2.27921V6H10.4892L10.4872 5ZM11.9792 6.334C11.9384 5.96715 11.7637 5.62824 11.4886 5.38212C11.2135 5.136 10.8563 4.99995 10.4872 5L10.4882 6C10.6113 5.99999 10.7301 6.04539 10.8218 6.1275C10.9135 6.20961 10.9717 6.32266 10.9852 6.445L11.9792 6.334ZM11.2662 15C11.4771 14.9999 11.6857 14.9553 11.8782 14.8691C12.0707 14.783 12.2429 14.6572 12.3835 14.5C12.5241 14.3427 12.63 14.1576 12.6942 13.9567C12.7584 13.7558 12.7806 13.5436 12.7572 13.334L11.7632 13.445C11.7711 13.515 11.7641 13.5848 11.7427 13.6519C11.7214 13.7189 11.6861 13.7807 11.6391 13.8332C11.5922 13.8857 11.5348 13.9277 11.4705 13.9564C11.4062 13.9852 11.3366 14 11.2662 14V15ZM0.00921378 13.334C-0.0141376 13.5437 0.0070186 13.756 0.0713005 13.957C0.135582 14.1579 0.241543 14.3431 0.382261 14.5003C0.522979 14.6576 0.695286 14.7833 0.887927 14.8694C1.08057 14.9555 1.28921 15 1.50021 15V14C1.42991 14 1.36039 13.9852 1.29621 13.9565C1.23202 13.9278 1.1746 13.8859 1.1277 13.8336C1.0808 13.7812 1.04547 13.7195 1.02402 13.6526C1.00257 13.5856 0.99548 13.5149 1.00321 13.445L0.00921378 13.334ZM1.78121 6.444C1.79498 6.32184 1.85328 6.20903 1.94496 6.12712C2.03664 6.04522 2.15628 5.99996 2.27921 6V5C1.91027 5.00019 1.55333 5.13635 1.27846 5.38245C1.00358 5.62855 0.828044 5.96732 0.787214 6.334L1.78121 6.444ZM3.88321 4V3.5H2.88321V4H3.88321ZM8.88321 3.5V4H9.88321V3.5H8.88321ZM6.38321 1C7.04625 1 7.68214 1.26339 8.15098 1.73223C8.61982 2.20107 8.88321 2.83696 8.88321 3.5H9.88321C9.88321 2.57174 9.51447 1.6815 8.85809 1.02513C8.20171 0.368749 7.31147 0 6.38321 0V1ZM3.88321 3.5C3.88321 2.83696 4.14661 2.20107 4.61545 1.73223C5.08429 1.26339 5.72017 1 6.38321 1V0C5.45496 0 4.56472 0.368749 3.90834 1.02513C3.25196 1.6815 2.88321 2.57174 2.88321 3.5H3.88321Z" fill="black"/>
</svg>
