<?xml version="1.0" encoding="utf-8"?>
<!-- Generator: Adobe Illustrator 27.3.1, SVG Export Plug-In . SVG Version: 6.00 Build 0)  -->
<svg version="1.1" id="Layer_1" xmlns="http://www.w3.org/2000/svg" xmlns:xlink="http://www.w3.org/1999/xlink" x="0px" y="0px"
	 viewBox="0 0 368.2 170.5" style="enable-background:new 0 0 368.2 170.5;" xml:space="preserve">
<style type="text/css">
	.st0{fill:none;}
	.st1{fill:#F2E3C1;}
	.st2{fill:none;stroke:#F2E3C1;stroke-width:4;stroke-linecap:round;stroke-miterlimit:10;}
	.st3{fill:none;stroke:#F2E3C1;stroke-width:4;stroke-miterlimit:10;}
	.st4{fill:none;stroke:#F2E3C1;stroke-width:4;stroke-linecap:round;stroke-miterlimit:21;stroke-dasharray:0,10;}
	.st5{fill:none;stroke:#F2E3C1;stroke-width:4;stroke-linecap:round;stroke-miterlimit:21;stroke-dasharray:0,11;}
	.st6{clip-path:url(#SVGID_00000154385440110028073900000001819583005153651349_);}
	.st7{fill:#FFFFFF;}
	.st8{fill:#4C1502;}
	.st9{fill:#8D330C;}
	.st10{fill:none;stroke:#4C1502;stroke-width:0.6;stroke-linecap:round;}
</style>
<path class="st0" d="M-3.2,124.8"/>
<g>
	<path class="st1" d="M357.8,47.8c-5,0-9,4-9,9s4,9,9,9s9-4,9-9S362.8,47.8,357.8,47.8z M357.8,61.8c-2.8,0-5-2.2-5-5s2.2-5,5-5
		s5,2.2,5,5S360.6,61.8,357.8,61.8z"/>
	<g>
		<line class="st2" x1="119.2" y1="151.8" x2="72.8" y2="151.8"/>
		<line class="st2" x1="365.8" y1="151.8" x2="206.7" y2="151.8"/>
		<line class="st2" x1="122" y1="161.8" x2="72.8" y2="161.8"/>
		<line class="st2" x1="365.8" y1="161.8" x2="208.9" y2="161.8"/>
		<line class="st3" x1="351.8" y1="152.8" x2="353.8" y2="160.8"/>
		<line class="st3" x1="336.9" y1="152.8" x2="338.9" y2="160.8"/>
		<line class="st3" x1="321.9" y1="152.8" x2="323.9" y2="160.8"/>
		<line class="st3" x1="307" y1="152.8" x2="309" y2="160.8"/>
		<line class="st3" x1="292" y1="152.8" x2="294" y2="160.8"/>
		<line class="st3" x1="277.1" y1="152.8" x2="279.1" y2="160.8"/>
		<line class="st3" x1="262.1" y1="152.8" x2="264.1" y2="160.8"/>
		<line class="st3" x1="247.2" y1="152.8" x2="249.2" y2="160.8"/>
		<line class="st3" x1="232.2" y1="152.8" x2="234.2" y2="160.8"/>
		<line class="st3" x1="217.3" y1="152.8" x2="219.3" y2="160.8"/>
		<line class="st3" x1="112.7" y1="152.8" x2="114.7" y2="160.8"/>
		<line class="st3" x1="97.7" y1="152.8" x2="99.7" y2="160.8"/>
		<line class="st3" x1="82.8" y1="152.8" x2="84.8" y2="160.8"/>
	</g>
	<polygon class="st0" points="206.7,148.8 119.2,148.8 117.8,143.8 205.8,144.8 	"/>
	<polygon class="st0" points="209.8,162.8 122.8,161.8 122,158.8 208.9,158.8 	"/>
	<path class="st4" d="M72.8,140.8c0,0,54,13,134,4c78.7-8.8,151-8,151-8"/>
	<path class="st5" d="M349.8,65.8c-3.7,1.4-27,9.5-44-3c-5.7-4.2-15.3-14-13-23c1.1-4.2,4.9-9.3,9-9c2.9,0.2,5,2.9,6,5
		c3,6.4-2.1,14.6-6,19c-2.4,2.7-5.5,4.9-11,7c-13.7,5.2-39.2,9-52-5c-2.7-2.9-1.6-3.2-5-8c-9.1-13-27.3-26.4-43-22
		c-7.5,2.1-15.3,8.6-16,16c-0.4,4.4,1.6,10.4,5,11c2.7,0.5,6.1-2.6,7-6c0.7-2.8-0.5-5.2-1-6c-3-5.5-10.2-6.9-12-7
		c-13.5-0.9-33,13-45.8,21.4c-1.4,0.9-7.3,3.7-7.4,3.8c-7,3.1-18.1,0.7-20.7-5.1c-6-13,21-18,14-30"/>
	<g>
		<g>
			<path class="st1" d="M271.8,11.8c1.8,4.5,2.6,8.9,3.1,13.6c0-0.2,0-0.4-0.1-0.6c0,0,0.1,0.2,0.1,0.2c1.4,2.2,2.6,4.4,3.7,6.7
				c0.9,1.7,0.9,3.8-0.1,5.6c-1.3,1.9-2.6,3.7-4.1,5.5l-0.2,0.2l-0.1,0.1c0-0.1,0-0.3,0-0.3c0,0,0,0,0,0l-0.1,0.3l-0.6,2.6
				c-0.5,1.7-0.9,3.5-1.7,5.2c-0.1,0.2-0.4,0.1-0.4-0.1l-0.1-5.1l0-2.6c0-0.4,0-0.9,0.2-1.4c0.4-0.8,2.8-4.7,3.3-5.6
				c0.4-0.6,0.9-1.3,0.6-2.1c-0.7-1.5-2.7-5.3-3.5-6.8c-0.3-0.5-0.7-1.3-0.7-2c0-0.5,0-2.7,0-3.2c0-3.4,0.1-6.9,0.1-10.3
				C271.4,11.6,271.7,11.6,271.8,11.8C271.8,11.8,271.8,11.8,271.8,11.8L271.8,11.8z"/>
		</g>
		<g>
			<path class="st1" d="M272.2,11.8c0.1,4.2,0.1,8.6,0.1,12.8c0,0.4,0,0.9-0.1,1.4c-0.7,1.7-2.7,5.3-3.5,6.9
				c-0.5,0.9-0.9,1.7-0.2,2.6l0.3,0.6l2.6,4.4c0.2,0.4,0.4,0.7,0.7,1.1c0.2,0.5,0.2,1,0.2,1.4l0,2.6l-0.1,5.1c0,0.2-0.3,0.3-0.4,0.1
				c-0.8-1.7-1.2-3.5-1.7-5.2c-0.1-0.3-0.6-2.9-0.7-2.9c-0.1,0.1-0.1,0.2,0,0.3c-0.2-0.2-0.5-0.6-0.7-0.9c-1.3-1.6-2.5-3.2-3.7-5
				c-1-1.7-1-3.8-0.1-5.6c1.2-2.4,2.5-4.7,3.9-6.9c-0.1,0.2-0.1,0.4-0.1,0.6c0,0,0,0,0-0.1c0.5-4.6,1.2-9,3.1-13.5
				c0-0.1,0.1-0.2,0.3-0.2C272.2,11.7,272.2,11.8,272.2,11.8L272.2,11.8z"/>
		</g>
	</g>
	<path class="st1" d="M158.2,63.9c-0.1,0-0.1,0-0.2,0c-9.1-0.1-16.5-7.6-16.5-16.7c0-3.5,1.1-6.7,2.9-9.4c0.7-1.1,1.6-2,2.5-2.9
		c-0.3,0-0.7,0-1,0c-0.9,0-1.7,0.1-2.6,0.2c-9,1.3-15.9,9-15.9,18.3c0,10.2,8.3,18.5,18.5,18.5c4.8,0,9.2-1.9,12.5-4.9
		c1.1-1,2-2.1,2.8-3.3C160.3,63.8,159.3,63.9,158.2,63.9z M147.2,68.3c-8.5,0-15.4-6.9-15.4-15.4c0-5.4,2.8-10.2,7.1-12.9
		c-1.7,2.7-2.7,6-2.7,9.4c0,9.4,7.2,17.1,16.4,18C150.9,68,149.1,68.3,147.2,68.3z"/>
	<g>
		<path class="st1" d="M107.9,1.5c-2.7,0-5,1.9-5.6,4.4l0,0c0,0.1,0,0.1,0,0.2c-0.1,0.4-0.1,0.8-0.1,1.1c0,0.2,0,0.3,0,0.5
			c0,0,0,0,0,0c0.2,2.6,2.2,4.7,4.8,5.1c0.3,0,0.6,0.1,0.9,0.1c0.1,0,0.1,0,0.2,0l0,0c0.6,0,1.3-0.1,1.8-0.4
			c1.8-0.7,3.2-2.2,3.6-4.1c0.1-0.3,0.1-0.6,0.1-0.9c0-0.1,0-0.2,0-0.3C113.6,4,111,1.5,107.9,1.5z M107.6,9.9
			c-1.1-0.2-1.9-1.2-1.9-2.3c0-1.3,1.1-2.4,2.4-2.4s2.4,1.1,2.4,2.4c0,0.3,0,0.5-0.1,0.8c-0.3,0.9-1.2,1.6-2.2,1.6
			C108,10,107.8,10,107.6,9.9z"/>
		<path class="st1" d="M120.8,13.5c-1,0.7-2.2,1.2-3.6,1.5c0.7-0.4,1.2-1.1,1.2-2c0-1.3-1-2.3-2.3-2.3s-2.3,1-2.3,2.3
			c0,1.1,0.7,2,1.7,2.2c-2.8,0.1-5.1-1-5.8-2.6c-0.1-0.2-0.1-0.4-0.1-0.5c-0.2-1.4,0.7-2.7,2.2-3.7c0.5-0.3,1-0.6,1.6-0.8
			c0.6-0.2,1.3-0.4,2.1-0.5c3.6-0.6,6.8,0.8,7.1,3C123,11.2,122.2,12.5,120.8,13.5z"/>
		<path class="st1" d="M120.8,13.5c-0.7-1.7-2.5-3.4-4.9-4.4c-0.8-0.4-1.7-0.6-2.5-0.7c-0.5-0.1-1-0.1-1.5-0.1
			c-0.6,0-1.1,0.1-1.6,0.2c-0.3,0.9-1.2,1.6-2.2,1.6c-0.2,0-0.3,0-0.5,0c-0.2,0.2-0.3,0.5-0.4,0.8c-0.1,0.3-0.2,0.5-0.2,0.8l0,0
			c-0.1,0.4,0,0.8,0.1,1.3c0.4,2,2.3,4,5,5.2c0.1,0,0.1,0,0.2,0.1c3.8,1.6,7.7,0.9,8.8-1.6C121.4,15.5,121.3,14.5,120.8,13.5z
			 M116.2,15.2c-0.2,0-0.4,0-0.6-0.1c-1-0.2-1.7-1.1-1.7-2.2c0-1.3,1-2.3,2.3-2.3s2.3,1,2.3,2.3c0,0.9-0.5,1.7-1.2,2
			C116.9,15.1,116.6,15.2,116.2,15.2z"/>
		<path class="st1" d="M102.3,5.8c-0.3,2-0.3,5.1,0.7,8c0.2,0.7,0.5,1.2,0.6,1.4c0.5,1,1.3,2.8,3.2,4c0,0,1.3,0.8,2.7,1.1
			c0.6,0.1,1.1,0,1.1,0c0.3,0,0.6-0.1,0.8-0.2c0.1-0.1,0.6-0.2,0.8-0.6c0,0,0.1-0.2,0.1-0.4c0,0,0.1-0.5-0.2-1.1
			C111.8,17.5,107.8,12.5,102.3,5.8z"/>
		<path class="st1" d="M101.9,10.7c0,0-0.5-1.3-0.7-2.4c0,0-2.6-2.3-7.9-4.3c0,0-0.3,2.9,2.6,4.7C98.9,10.6,100.8,9.8,101.9,10.7z"
			/>
		<path class="st1" d="M102.4,11.2c0,0-3.7-0.1-5.6-1c0,0,1.2,3.6,5.8,2.5L102.4,11.2z"/>
	</g>
</g>
<path class="st1" d="M32.8,91.5c0,0-3.2-15.3,15.6-46.8C67.3,13.2,83.6,9.1,83.6,9.1s20.9-8.6,8.5,22c0,0-10.4,23.5-21.6,26.4
	c-9.2,0.8-9-14.1-1.1-17c0,0,1.6-0.6,2.6,0.7c0.9,1.3-0.3,5.3-2.1,5c-1.8-0.3-2.9,7,1.6,4.3s18.1-29.5,13.9-33.2
	c0,0-10.6-4.8-31.4,30.6c-22.5,44.8,0,33.7,0,33.7s21.6-11.2,18,22.7c-3.7,34.3-26.2,52.4-26.2,52.4s-20.8,19.8-39.2,4.6
	c-14.7-15,0.2-38.2,0.2-38.2s2-2.8,4.2,0c1.1,2-2,3.2-2,3.2s-12.2,22.5,1.1,32.9s30.9-6.1,30.9-6.1s22.7-24.2,21.6-48.7
	c0,0,0-12.7-12.4-6C39.1,103.4,34.3,98.5,32.8,91.5L32.8,91.5z M303.9,108c-0.8,3.1-1.8,6.4-2.9,9.2c-0.4,1-0.7,4.3,0,5.3
	c0.8,1.1,1.4,1.5,3.4,2c0.2,0,0.9,1.3,0.5,2.6c-0.5,1.3-2.1,2.2-3.6,2.5c-3.9,0.5-6.7-3.8-8.7-2.8c-0.4,0.2-4.6,3.4-6.4,3.9
	c-3.5,0.9-8.2,2-13.3-0.2c-6.1-2.7-7.6-8.3-7.8-9.2c-1.7-7.1,3.2-15.1,10.7-18.9c7.8-3.9,16.6-2.2,21.4,0.4c0,0,0,0,0,0
	c0.1,0,5-12.5-1-15.8c-0.4-0.2-1.8-1-4.3-1c-8-0.1-14.8,8.2-17.2,11.2c-0.1,0.1-0.3,0.7-0.8,1c-1.2,0.8-3.1,0.3-4.1-0.1
	c-0.2-0.1-2.5-1.2-2.6-3.1c0-0.8,0.4-1.5,0.7-1.9c9.1-12.9,20.8-13.7,20.8-13.7c2.5-0.2,7.6-0.5,11.6,2.3c4.1,2.8,5,7.5,5.2,12.3
	C305.7,95.5,304.9,104.1,303.9,108z M293.8,106.1c-1.3-1-2.9-1-4.3-1c-3.9,0-9.2,1.7-12.1,5.8c-2.6,3.7-3.4,9.6,0.3,12.4
	c2.8,2.1,6.8,1.4,7.4,1.3c3.1-0.6,5.8-2.5,7.5-5.2c0.5-0.8,2.1-4.3,2.3-5.1C295.8,111.1,295.8,107.6,293.8,106.1z M251.2,125.3
	c-5.6,4.3-13.9,6.8-19.4,5.6c-5.9-1.3-8.6-6.3-8.7-6.3c-0.4,0-0.2,4.2-2.4,6.6c-1.5,1.7-4.8,3-7.1,1.5c-2-1.3-2.7-4.3-1.7-5.9
	c0.5-0.8,1.2-0.8,2.1-1.8c1.2-1.4,1.2-3,1.2-3.8c0.3-7.6,7.3-76.7,7.4-77.5c0,0,0.1-0.4,0.1-0.9c0.1-0.7,0.1-1.4,0.1-1.9
	c-0.8-3,0.2-6,2.4-7.5c0.3-0.2,3.2-2.1,6-0.6c1.8,1,2.9,3,2.7,5c-0.1,1.2-1,1.5-2.2,3.7c0,0-0.6,1.1-1.2,2.8
	c-2.4,7.1-4.4,42.4-4.4,42.8c0,0.1,0,0.1,0,0.1c-0.1,0.9-0.1,1-0.1,1c0.3,0.3,6-5.9,12.5-7.9c0.4-0.1,6.9-1.9,13,0.7
	c12.7,5.5,10.8,21.6,10.7,22.7C262.4,104.9,261.7,117.2,251.2,125.3z M253.8,96.7c-0.4-3.4-1.7-5.8-3.6-7.9
	c-2.8-3.2-7.8-4.4-11.8-3.6c-0.2,0-2.1,0.6-4.1,1.7c-10.1,5.8-10.3,20.2-10.3,22.5c0.2-0.2,0.6-0.6,1.1-0.9c0.1-0.1,2.3-1.6,5.1-1.6
	c3,0,6.2,1.5,7.8,4.3c1.7,3,1.4,7.5-1.5,9.5c-1.6,1.1-4.3,1.7-6,0.6c-2.5-1.3-3.8-4.6-2.6-7.8c0,0-1.2-0.4-2-0.1
	c-0.6,0.2-0.9,0.6-1.1,0.9c-1.1,1.7-0.3,4.5-0.3,4.8c0.7,2.4,2.8,5.7,6.6,7.1c4.1,1.5,7.7,0.1,9-0.4c5.3-2.1,7.8-6.6,9.6-10
	C254,107.7,254.2,100.4,253.8,96.7z M153.9,129.1c0.4,0.5,0.9,0.9,1.5,1.4c0.4,0.3,1.2,0.8,2,1c1.5,0.3,3.3-0.7,4.7-2.5
	c0.3-0.5,0.3-1.2,0.2-1.6c-0.6-7.4-0.8-17.4,2.1-27.9c0.8-2.9,2-6.2,5-9c0.8-0.8,5.5-5,12-4c5,0.8,8.4,4.2,10,7c1.3,2.2,1.6,4.2,2,7
	c0.8,5.2,0.2,9.4,0,11c-2.6,17.8-4.4,31.7-16,42c-8.7,7.7-18.4,10-23,11c-1.1,0.3-11,2.4-13-1c-0.4-0.6-0.3-1.2-1-2
	c-1.4-1.7-4.7-2.6-7-1c-1.9,1.4-2,3.7-2,4c-0.1,3.1,2.7,6,5,6c1.3,0,2.1-0.9,5-1c0.4,0,0.8,0,1,0c4.1,0,6.9,0,7,0
	c2.1,0,35.8-3.6,51-32c7.4-13.8,12.6-37.5,1-50c-0.6-0.6-8.5-8.9-18-8c-9,0.9-17.4,9.8-18,9c-0.1-0.1,0.2-0.4,0.4-1.2
	c0.5-1.6,0.3-3.6-0.4-4.8c-2.3-3.3-9.2-2.1-10,0c-0.2,0.5,0,0.9,0,1c0.2,0.8,0.4,1.6,0.5,2.5c0.4,3.1,0.7,20.7-2.4,41.7
	C153.5,127.9,153.4,128.5,153.9,129.1z M134.8,125.6c0,0.2,0,0.6,0,1c0.2,1.7,1.6,3.2,3.1,3.9c0.2,0.1,2.6,1.2,5-0.1
	c2.5-1.3,2.8-4.3,2.9-5.1c0.1-1,0-1.8,0-2c-1.3-8.5,0.8-29.4,1.4-32c0.4-1.7,0.9-3,0.9-3c0.5-1.3,0.8-1.4,1-2c0.5-2.3-1-4.8-3.1-5.9
	c-2.3-1.2-5.5-0.8-7,1.1c-0.7,0.9-1.4,2.6-0.9,4c0.3,0.8,0.9,1.5,1.1,3c0,0,0,0.5,0,1C139.3,100.7,138,112.8,134.8,125.6
	 M346.8,125.6c0,0.2,0,0.6,0,1c0.2,1.7,1.6,3.2,3.1,3.9c0.2,0.1,2.6,1.2,5-0.1c2.5-1.3,2.8-4.3,2.9-5.1c0.1-1,0-1.8,0-2
	c-1.3-8.5,0.8-29.4,1.4-32c0.4-1.7,0.9-3,0.9-3c0.5-1.3,0.8-1.4,1-2c0.5-2.3-1-4.8-3.1-5.9c-2.3-1.2-5.5-0.8-7,1.1
	c-0.7,0.9-1.4,2.6-0.9,4c0.3,0.8,0.9,1.5,1.1,3c0,0,0,0.5,0,1C351.3,100.7,350,112.8,346.8,125.6 M87.4,82.7c-1.7,1-6.6,3.8-8,9.6
	c-1.8,7.3,3.6,13.4,4,13.8c-0.9,0.5-3.5,2-5,5.3c0,0-1.3,2.9-1,6.4c0.2,2.1,1,4.1,2.2,5.9c3.1,4.6,8.5,6.7,13.8,5.9
	c0.3,0,0.7-0.1,1-0.1c8.3-1.2,15.8-1,22.4-0.2c1,0.1,1.9,0.5,2.8,1c2.8,1.6,6,1.2,7.8-0.8c1.8-1.9,2.4-5.3,1-7.4
	c-0.9-1.5-2.5-2-3-2.1c-1-0.3-1.9-0.3-4,0c-2.2,0.3-3.2,0.8-5,1.1c-2.1,0.4-5.8,0.9-15,1.1c-2.3,0-5.4,0.1-9.1,0
	c-0.7,0-1.4-0.1-2.1-0.4c-2.1-0.9-3.5-2.8-3.8-4.9c-0.4-3.3,2.1-6.9,6-7.4c0.2,0,0.4,0,0.6,0c16.4,0.3,26.2-0.1,26.9-0.1
	c0.4,0,0.9,0,1.5,0.1c2.2,0.3,2.7,1.2,4,1.1c0.4,0,3.5-0.3,5-3.2c1.3-2.4,0.9-5.7-1-7.4c-1.7-1.5-4.1-1.2-5-1.1
	c-1.3,0.2-2,0.6-3,1.1c-1.6,0.7-4,1.3-7.5,1c-7.5,0-15,0-22.5,0c-1.7,0.1-3.3-0.7-4-2.1c-1-1.8-0.2-3.7,0-4.2c0.7-1.6,1.9-2.5,3-3.2
	c2.5-1.7,5.2-2.1,7-2.1c16.8-0.9,23.3-0.2,25,1.1c0.1,0.1,0.9,0.7,2,1.1c0.8,0.3,2.9,1,5,0c0.5-0.3,2.2-1.2,3-3.2
	c1.1-2.7,0-5.9-2-7.4c-1.6-1.2-3.5-1.1-4-1.1c-1.7,0.1-2.5,0.9-5,1.1c-0.8,0.1-1.4,0-2,0c-8.3-0.5-17-2-26,0
	C91.3,81,89.6,81.4,87.4,82.7z M324.4,43.1c-1,4-13.2,52.6-11,71.5c0.6,5.2,2.4,8.9,5,11.6c3.2,3.3,9.2,6.5,15,4.8
	c0.4-0.1,5.2-1.6,7-5.8c0.3-0.7,1.8-4.2,0-5.8c-0.8-0.7-2.1-0.9-3.4-0.5c-0.9,0.2-1.5,1-1.5,1.8c0,0.9-0.3,2-1.1,2.6
	c-1.8,1.3-5.2-0.4-7-1.9c-3.5-2.9-3.8-7.7-4-9.7c-0.1-1.5,0-22.2,4.7-54.2c0.1-0.9,0.2-1.9,0.3-2.8c0.8-7,2.5-11.5,4-14.5
	c0.6-1.2,2.1-3.8,1-5.8c-0.8-1.5-2.7-1.9-3-1.9c-3-0.5-6.1,2-6,3.9C324.5,37.1,325.2,41.8,324.4,43.1z"/>
<g>
	<g>
		<defs>
			
				<rect id="SVGID_1_" x="80.7" y="96.6" transform="matrix(7.440211e-02 -0.9972 0.9972 7.440211e-02 -2.5938 205.2588)" width="57.1" height="14.9"/>
		</defs>
		<clipPath id="SVGID_00000150784424169377823460000016632561093214458790_">
			<use xlink:href="#SVGID_1_"  style="overflow:visible;"/>
		</clipPath>
		<g style="clip-path:url(#SVGID_00000150784424169377823460000016632561093214458790_);">
			<path class="st7" d="M113.7,102.5c-0.8,8.8-4.8,15.5-6.7,17.7c-4.3-12.6-0.9-26.6,1.3-32C111.8,91.6,113.3,99.1,113.7,102.5z"/>
			
				<ellipse transform="matrix(5.289999e-02 -0.9986 0.9986 5.289999e-02 -4.4217 206.0064)" class="st8" cx="106.4" cy="105.3" rx="5.5" ry="2.6"/>
			<path class="st9" d="M116.7,104.7c0.4-6.2-1.5-15.1-3.3-21c-1.5-4.8-1.5-7.6-1.4-8.3c0,0,0-0.1,0-0.1c0,0,0-0.1,0-0.1
				c0,0,0,0,0,0.1c0,0,0,0,0,0c0,0.1,0,0.2-0.1,0.3c0,0.1-0.1,0.3-0.2,0.5c0,0,0,0,0,0c0,0.1-0.1,0.3-0.1,0.4
				c-0.2,0.7-0.6,1.6-1.3,2.8c-2.9,5.8-8.1,16.3-8.5,24.1c-0.3,5.9,3.4,14.6,5.2,20.3c0.4,1.3,0.7,2.4,0.9,3.4v0c0,0,0,0.1,0,0.1
				c0.5,2.1,0.7,4.8,0.8,4.9c0.2-1,0.8-3.8,2.4-7.2C113.9,119.4,116.3,111.8,116.7,104.7z M106.8,118.6
				C106.8,118.6,106.8,118.6,106.8,118.6c-0.3-2.5-0.4-5-0.5-7.3c0-0.5,0-0.9,0-1.4c0-0.3,0-0.5,0-0.8c0-0.1,0-0.2,0-0.3
				c0-2.3,0-4.6,0.2-6.8c0-0.5,0.1-0.9,0.1-1.4c0.3-3.3,0.7-6.6,1.4-10c0,0,0,0,0,0C115.7,100.6,110.5,113.2,106.8,118.6z"/>
			<path class="st10" d="M106.8,118.8c-1.8-15.6,1.1-28.1,1.1-28.1c0.6-3.6,3.7-11,3.9-14.9"/>
			<path class="st10" d="M106.8,118.8c0.5,2.7,2.1,10.2,1.9,13.7"/>
		</g>
	</g>
</g>
</svg>
