<svg width="16" height="15" viewBox="0 0 16 15" fill="none" xmlns="http://www.w3.org/2000/svg">
<path d="M7.69707 1.33499C9.7516 1.33499 9.99435 1.34069 10.8055 1.38063C11.5575 1.41486 11.966 1.53467 12.2324 1.63736C12.5936 1.77428 12.8482 1.93402 13.1146 2.19075C13.387 2.45318 13.5528 2.6985 13.6889 3.04081C13.7955 3.30324 13.9199 3.69689 13.9554 4.41573C13.9909 5.19733 14.0028 5.43123 14.0028 7.4109C14.0028 9.39056 13.9968 9.62447 13.9554 10.4061C13.9199 11.1306 13.7955 11.5243 13.6889 11.781C13.5468 12.129 13.3811 12.3743 13.1146 12.6367C12.8482 12.8935 12.5877 13.0589 12.2324 13.1901C11.9601 13.2928 11.5515 13.4126 10.8055 13.4469C9.99435 13.4811 9.7516 13.4925 7.69707 13.4925C5.64255 13.4925 5.39979 13.4868 4.58864 13.4469C3.8367 13.4126 3.42816 13.2928 3.16172 13.1901C2.80055 13.0532 2.54596 12.8935 2.2736 12.6367C2.00716 12.3743 1.83546 12.129 1.69928 11.781C1.5927 11.5186 1.46836 11.1249 1.43284 10.4061C1.39731 9.62447 1.38547 9.39056 1.38547 7.4109C1.38547 5.43123 1.39139 5.19733 1.43284 4.41573C1.46836 3.69119 1.5927 3.29754 1.69928 3.04081C1.84138 2.6928 2.00716 2.44748 2.2736 2.19075C2.54596 1.92832 2.80055 1.76857 3.16172 1.63736C3.43408 1.53467 3.84262 1.41486 4.58864 1.38063C5.39979 1.3464 5.64255 1.33499 7.69707 1.33499ZM7.69707 0C5.60702 0 5.34651 0.0114101 4.52351 0.0456406C3.70644 0.0798711 3.14396 0.205383 2.65253 0.387945C2.14334 0.576213 1.71704 0.832941 1.29074 1.24371C0.864441 1.65447 0.598004 2.07094 0.402616 2.55588C0.21315 3.0294 0.0828904 3.56567 0.0473654 4.35868C0.0118405 5.15169 0 5.40271 0 7.4166C0 9.43049 0.00591965 9.68152 0.0473654 10.4745C0.0828904 11.2618 0.21315 11.8038 0.402616 12.2773C0.598004 12.7623 0.864441 13.1787 1.29074 13.5895C1.71704 14.0003 2.14926 14.257 2.65253 14.4453C3.14396 14.6278 3.70052 14.7533 4.52351 14.7876C5.34651 14.8218 5.60702 14.8332 7.69707 14.8332C9.78713 14.8332 10.0476 14.8275 10.8706 14.7876C11.6877 14.7533 12.2502 14.6278 12.7416 14.4453C13.2508 14.257 13.6771 14.0003 14.1034 13.5895C14.5297 13.1787 14.7961 12.7623 14.9915 12.2773C15.181 11.8038 15.3113 11.2675 15.3468 10.4745C15.3823 9.68152 15.3941 9.43049 15.3941 7.4166C15.3941 5.40271 15.3882 5.15169 15.3468 4.35868C15.3113 3.57138 15.181 3.0294 14.9915 2.55588C14.7961 2.07094 14.5297 1.65447 14.1034 1.24371C13.6771 0.832941 13.2449 0.576213 12.7416 0.387945C12.2502 0.205383 11.6936 0.0798711 10.8706 0.0456406C10.0476 0.0114101 9.78713 0 7.69707 0Z" fill="#F2F7D1"/>
<path d="M7.69828 3.61035C5.51349 3.61035 3.74316 5.31617 3.74316 7.42134C3.74316 9.52651 5.51349 11.2323 7.69828 11.2323C9.88307 11.2323 11.6534 9.52651 11.6534 7.42134C11.6534 5.31617 9.88307 3.61035 7.69828 3.61035ZM7.69828 9.89163C6.2832 9.89163 5.13456 8.78485 5.13456 7.42134C5.13456 6.05783 6.2832 4.95104 7.69828 4.95104C9.11336 4.95104 10.262 6.05783 10.262 7.42134C10.262 8.78485 9.11336 9.89163 7.69828 9.89163Z" fill="#F2F7D1"/>
<path d="M12.7306 3.45444C12.7306 3.94508 12.3161 4.34444 11.8069 4.34444C11.2978 4.34444 10.8833 3.94508 10.8833 3.45444C10.8833 2.96381 11.2978 2.56445 11.8069 2.56445C12.3161 2.56445 12.7306 2.96381 12.7306 3.45444Z" fill="#F2F7D1"/>
</svg>
