<svg width="13" height="13" viewBox="0 0 13 13" fill="none" xmlns="http://www.w3.org/2000/svg">
<path d="M5.55942 11.1182C6.79291 11.1181 7.99088 10.7052 8.96247 9.94526L12.0174 13L13 12.0174L9.9451 8.96269C10.7054 7.99105 11.1186 6.79287 11.1188 5.55912C11.1188 2.49396 8.62474 0 5.55942 0C2.49409 0 0 2.49396 0 5.55912C0 8.62428 2.49409 11.1182 5.55942 11.1182ZM5.55942 1.38978C7.85893 1.38978 9.72898 3.25973 9.72898 5.55912C9.72898 7.85851 7.85893 9.72846 5.55942 9.72846C3.2599 9.72846 1.38985 7.85851 1.38985 5.55912C1.38985 3.25973 3.2599 1.38978 5.55942 1.38978Z" fill="black"/>
</svg>
