<?xml version="1.0" encoding="utf-8"?>
<!-- Generator: Adobe Illustrator 27.3.1, SVG Export Plug-In . SVG Version: 6.00 Build 0)  -->
<svg version="1.1" id="Layer_1" xmlns="http://www.w3.org/2000/svg" xmlns:xlink="http://www.w3.org/1999/xlink" x="0px" y="0px"
	 viewBox="0 0 368.167 170.475" enable-background="new 0 0 368.167 170.475" xml:space="preserve">
<path fill="none" d="M-3.196,124.836"/>
<g>
	<path fill="#8BAE66" d="M357.804,47.836c-4.97,0-9,4.03-9,9c0,4.97,4.03,9,9,9s9-4.03,9-9
		C366.804,51.866,362.773,47.836,357.804,47.836z M357.804,61.836c-2.76,0-5-2.24-5-5s2.24-5,5-5s5,2.24,5,5
		S360.564,61.836,357.804,61.836z"/>
	<g>
		
			<line fill="none" stroke="#262D42" stroke-width="4" stroke-linecap="round" stroke-miterlimit="10" x1="119.194" y1="151.836" x2="72.804" y2="151.836"/>
		
			<line fill="none" stroke="#262D42" stroke-width="4" stroke-linecap="round" stroke-miterlimit="10" x1="365.804" y1="151.836" x2="206.694" y2="151.836"/>
		
			<line fill="none" stroke="#262D42" stroke-width="4" stroke-linecap="round" stroke-miterlimit="10" x1="121.974" y1="161.836" x2="72.804" y2="161.836"/>
		
			<line fill="none" stroke="#262D42" stroke-width="4" stroke-linecap="round" stroke-miterlimit="10" x1="365.804" y1="161.836" x2="208.914" y2="161.836"/>
		
			<line fill="none" stroke="#262D42" stroke-width="4" stroke-miterlimit="10" x1="351.804" y1="152.836" x2="353.804" y2="160.836"/>
		
			<line fill="none" stroke="#262D42" stroke-width="4" stroke-miterlimit="10" x1="336.859" y1="152.836" x2="338.859" y2="160.836"/>
		
			<line fill="none" stroke="#262D42" stroke-width="4" stroke-miterlimit="10" x1="321.915" y1="152.836" x2="323.915" y2="160.836"/>
		<line fill="none" stroke="#262D42" stroke-width="4" stroke-miterlimit="10" x1="306.97" y1="152.836" x2="308.97" y2="160.836"/>
		
			<line fill="none" stroke="#262D42" stroke-width="4" stroke-miterlimit="10" x1="292.026" y1="152.836" x2="294.026" y2="160.836"/>
		
			<line fill="none" stroke="#262D42" stroke-width="4" stroke-miterlimit="10" x1="277.081" y1="152.836" x2="279.081" y2="160.836"/>
		
			<line fill="none" stroke="#262D42" stroke-width="4" stroke-miterlimit="10" x1="262.137" y1="152.836" x2="264.137" y2="160.836"/>
		
			<line fill="none" stroke="#262D42" stroke-width="4" stroke-miterlimit="10" x1="247.192" y1="152.836" x2="249.192" y2="160.836"/>
		
			<line fill="none" stroke="#262D42" stroke-width="4" stroke-miterlimit="10" x1="232.248" y1="152.836" x2="234.248" y2="160.836"/>
		
			<line fill="none" stroke="#262D42" stroke-width="4" stroke-miterlimit="10" x1="217.304" y1="152.836" x2="219.304" y2="160.836"/>
		
			<line fill="none" stroke="#262D42" stroke-width="4" stroke-miterlimit="10" x1="112.692" y1="152.836" x2="114.692" y2="160.836"/>
		<line fill="none" stroke="#262D42" stroke-width="4" stroke-miterlimit="10" x1="97.748" y1="152.836" x2="99.748" y2="160.836"/>
		<line fill="none" stroke="#262D42" stroke-width="4" stroke-miterlimit="10" x1="82.804" y1="152.836" x2="84.804" y2="160.836"/>
	</g>
	<polygon fill="none" points="206.694,148.836 119.194,148.836 117.804,143.836 205.804,144.836 	"/>
	<polygon fill="none" points="209.804,162.836 122.804,161.836 121.974,158.836 208.914,158.836 	"/>
	<path fill="none" stroke="#301A33" stroke-width="4" stroke-linecap="round" stroke-miterlimit="21" stroke-dasharray="0,10" d="
		M72.804,140.836c0,0,54,13,134,4c78.662-8.849,151-8,151-8"/>
	<path fill="none" stroke="#8BAE66" stroke-width="4" stroke-linecap="round" stroke-miterlimit="21" stroke-dasharray="0,11" d="
		M349.804,65.836c-3.7,1.352-26.964,9.475-44-3c-5.683-4.161-15.265-13.978-13-23c1.052-4.191,4.926-9.267,9-9
		c2.85,0.187,5.041,2.938,6,5c2.983,6.414-2.117,14.582-6,19c-2.392,2.721-5.482,4.889-11,7c-13.657,5.225-39.231,8.977-52-5
		c-2.679-2.932-1.642-3.195-5-8c-9.058-12.962-27.33-26.404-43-22c-7.507,2.11-15.31,8.567-16,16c-0.41,4.425,1.587,10.423,5,11
		c2.725,0.461,6.102-2.581,7-6c0.726-2.761-0.539-5.156-1-6c-2.983-5.456-10.232-6.882-12-7c-13.499-0.9-33,13-45.843,21.355
		c-1.355,0.882-7.329,3.725-7.416,3.764c-6.996,3.133-18.072,0.663-20.741-5.119c-6-13,21-18,14-30"/>
	<g>
		<g>
			<path fill="#FF8940" d="M271.779,11.836c1.84,4.51,2.574,8.912,3.077,13.558c0.041-0.204,0.001-0.405-0.085-0.611
				c0.023,0.029,0.102,0.168,0.127,0.202c1.367,2.165,2.611,4.446,3.744,6.741c0.943,1.729,0.925,3.832-0.091,5.552
				c-1.26,1.885-2.63,3.703-4.086,5.456c0,0-0.211,0.248-0.211,0.248l-0.106,0.124c0.044-0.134,0.034-0.286-0.048-0.345
				c-0.011-0.006-0.023-0.033-0.034,0.046c0,0-0.069,0.321-0.069,0.321l-0.557,2.569c-0.47,1.736-0.925,3.482-1.693,5.212
				c-0.074,0.18-0.372,0.13-0.368-0.073c0,0-0.097-5.139-0.097-5.139l-0.019-2.569c-0.012-0.397-0.016-0.945,0.211-1.396
				c0.424-0.769,2.783-4.731,3.266-5.567c0.384-0.634,0.873-1.317,0.621-2.098c-0.681-1.465-2.736-5.255-3.481-6.778
				c-0.277-0.54-0.72-1.257-0.656-1.962c0-0.467,0.02-2.709,0.021-3.212c0.008-3.426,0.055-6.852,0.133-10.278
				c-0.001-0.195,0.3-0.264,0.371-0.07C271.75,11.767,271.779,11.836,271.779,11.836L271.779,11.836z"/>
		</g>
		<g>
			<path fill="#FF8940" d="M272.228,11.836c0.106,4.248,0.127,8.592,0.15,12.847c-0.01,0.435,0.047,0.944-0.077,1.372
				c-0.704,1.66-2.713,5.33-3.529,6.937c-0.54,0.889-0.878,1.731-0.231,2.619c0,0,0.326,0.554,0.326,0.554l2.607,4.429
				c0.221,0.383,0.427,0.707,0.659,1.139c0.227,0.451,0.223,0.999,0.211,1.396l-0.019,2.569l-0.097,5.139
				c0.002,0.194-0.294,0.263-0.368,0.074c-0.767-1.731-1.222-3.476-1.693-5.212c-0.077-0.251-0.574-2.851-0.66-2.936
				c-0.081,0.059-0.092,0.215-0.048,0.345c-0.183-0.215-0.548-0.646-0.73-0.873c-1.306-1.602-2.53-3.246-3.673-4.954
				c-1.016-1.72-1.035-3.823-0.091-5.552c1.167-2.367,2.454-4.715,3.871-6.944c-0.086,0.207-0.126,0.407-0.085,0.611
				c0,0,0.006-0.047,0.009-0.069c0.499-4.623,1.238-9.001,3.068-13.49c0.031-0.117,0.149-0.237,0.281-0.174
				C272.182,11.693,272.226,11.763,272.228,11.836L272.228,11.836z"/>
		</g>
	</g>
	<path fill="#FF8940" d="M158.214,63.908c-0.079,0-0.15,0-0.229-0.009c-9.135-0.115-16.509-7.567-16.509-16.729
		c0-3.497,1.075-6.739,2.916-9.426c0.705-1.057,1.55-2.026,2.484-2.881c-0.326-0.018-0.661-0.026-0.995-0.026
		c-0.881,0-1.744,0.062-2.59,0.185c-8.995,1.251-15.91,8.977-15.91,18.315c0,10.219,8.281,18.5,18.5,18.5
		c4.845,0,9.241-1.859,12.536-4.898c1.075-0.987,2.026-2.097,2.837-3.312C160.267,63.811,159.254,63.908,158.214,63.908z
		 M147.202,68.313c-8.51,0-15.417-6.907-15.417-15.417c0-5.427,2.81-10.201,7.056-12.941c-1.683,2.74-2.652,5.964-2.652,9.417
		c0,9.409,7.197,17.135,16.386,17.98C150.902,67.969,149.096,68.313,147.202,68.313z"/>
	<g>
		<path fill="#8BAE66" d="M107.877,1.454c-2.702,0-4.965,1.879-5.553,4.402v0c-0.012,0.052-0.023,0.104-0.034,0.157
			c-0.075,0.369-0.114,0.751-0.114,1.143c0,0.171,0.007,0.339,0.023,0.506c0,0.001,0,0.002,0,0.003
			c0.232,2.627,2.246,4.741,4.824,5.129c0.279,0.042,0.564,0.064,0.855,0.064c0.055,0,0.11-0.001,0.165-0.002h0
			c0.639-0.018,1.251-0.142,1.821-0.353c1.801-0.669,3.172-2.222,3.586-4.132c0.065-0.302,0.107-0.612,0.123-0.93
			c0.005-0.095,0.007-0.189,0.007-0.285C113.579,4.006,111.026,1.454,107.877,1.454z M107.64,9.947
			c-1.077-0.22-1.887-1.173-1.887-2.315c0-1.305,1.058-2.363,2.363-2.363s2.363,1.058,2.363,2.363c0,0.273-0.046,0.534-0.131,0.778
			c-0.322,0.923-1.2,1.585-2.232,1.585C107.953,9.995,107.793,9.979,107.64,9.947z"/>
		<path fill="#8BAE66" d="M120.847,13.474c-0.956,0.683-2.204,1.213-3.617,1.479c0.741-0.375,1.248-1.144,1.248-2.031
			c0-1.257-1.019-2.276-2.276-2.276s-2.276,1.019-2.276,2.276c0,1.067,0.735,1.963,1.726,2.209c-2.794,0.103-5.147-0.954-5.788-2.63
			c-0.067-0.173-0.114-0.352-0.143-0.537c-0.209-1.359,0.684-2.728,2.224-3.717c0.483-0.311,1.031-0.584,1.628-0.807
			c0.633-0.238,1.323-0.42,2.052-0.532c3.604-0.554,6.805,0.812,7.149,3.05C122.969,11.228,122.203,12.505,120.847,13.474z"/>
		<path fill="#8BAE66" d="M120.847,13.474c-0.733-1.72-2.506-3.39-4.893-4.386c-0.84-0.35-1.686-0.588-2.505-0.718
			c-0.515-0.083-1.019-0.123-1.505-0.122c-0.561,0.001-1.097,0.055-1.596,0.163c-0.322,0.923-1.2,1.585-2.232,1.585
			c-0.163,0-0.323-0.016-0.476-0.048c-0.183,0.232-0.334,0.486-0.449,0.763c-0.11,0.264-0.183,0.537-0.221,0.816v0
			c-0.056,0.412-0.036,0.837,0.053,1.266c0.412,1.976,2.298,4.031,5.01,5.214c0.056,0.024,0.113,0.049,0.17,0.072
			c3.804,1.587,7.728,0.861,8.764-1.622C121.352,15.533,121.282,14.495,120.847,13.474z M116.202,15.198
			c-0.19,0-0.374-0.023-0.55-0.067c-0.991-0.246-1.726-1.142-1.726-2.209c0-1.257,1.019-2.276,2.276-2.276s2.276,1.019,2.276,2.276
			c0,0.887-0.508,1.656-1.248,2.031C116.921,15.11,116.572,15.198,116.202,15.198z"/>
		<path fill="#8BAE66" d="M102.306,5.833c-0.304,1.994-0.269,5.144,0.65,7.978c0.225,0.694,0.458,1.206,0.564,1.431
			c0.457,0.97,1.307,2.775,3.209,4.032c0,0,1.284,0.849,2.732,1.084c0.578,0.094,1.084,0.043,1.084,0.043
			c0.344-0.034,0.625-0.109,0.824-0.173c0.143-0.051,0.559-0.219,0.78-0.65c0.023-0.046,0.099-0.201,0.13-0.434
			c0,0,0.068-0.516-0.217-1.084C111.756,17.452,107.813,12.497,102.306,5.833z"/>
		<path fill="#8BAE66" d="M101.916,10.689c0,0-0.477-1.301-0.694-2.385c0,0-2.558-2.255-7.935-4.292c0,0-0.347,2.862,2.645,4.726
			C98.924,10.602,100.832,9.778,101.916,10.689z"/>
		<path fill="#8BAE66" d="M102.376,11.208c0,0-3.669-0.129-5.576-1.04c0,0,1.204,3.555,5.827,2.515L102.376,11.208z"/>
	</g>
</g>
<linearGradient id="SVGID_1_" gradientUnits="userSpaceOnUse" x1="180.5833" y1="170.4748" x2="180.5833" y2="8">
	<stop  offset="5.327789e-09" style="stop-color:#010130"/>
	<stop  offset="1" style="stop-color:#FF8940"/>
</linearGradient>
<path fill="url(#SVGID_1_)" d="M32.823,91.467c0,0-3.215-15.343,15.629-46.795C67.296,13.214,83.572,9.128,83.572,9.128
	s20.878-8.649,8.514,21.958c0,0-10.397,23.522-21.637,26.356c-9.183,0.85-9.037-14.079-1.074-17.049c0,0,1.647-0.624,2.557,0.714
	c0.91,1.338-0.337,5.271-2.136,4.999c-1.798-0.272-2.883,7.045,1.613,4.251c4.496-2.794,18.147-29.474,13.932-33.158
	c0,0-10.644-4.818-31.438,30.607c-22.514,44.777,0,33.696,0,33.696s21.643-11.155,18.029,22.7
	c-3.66,34.286-26.212,52.429-26.212,52.429s-20.794,19.839-39.211,4.631c-14.739-14.963,0.157-38.242,0.157-38.242
	s1.964-2.794,4.212,0c1.124,2.024-1.967,3.157-1.967,3.157s-12.173,22.457,1.124,32.875c13.297,10.418,30.908-6.105,30.908-6.105
	s22.688-24.191,21.637-48.745c0,0,0-12.742-12.364-5.951c-11.15,5.181-15.893,0.261-17.388-6.79L32.823,91.467z M303.913,107.975
	c-0.809,3.088-1.829,6.379-2.908,9.236c-0.367,0.977-0.727,4.323-0.017,5.345c0.755,1.087,1.38,1.465,3.432,2.029
	c0.172,0.047,0.937,1.311,0.483,2.581c-0.467,1.307-2.134,2.242-3.61,2.456c-3.866,0.545-6.733-3.797-8.668-2.829
	c-0.4,0.2-4.638,3.432-6.398,3.868c-3.482,0.856-8.248,2.025-13.261-0.189c-6.111-2.702-7.611-8.324-7.829-9.218
	c-1.746-7.098,3.159-15.139,10.702-18.919c7.822-3.921,16.648-2.154,21.447,0.438c0,0,0.01-0.002,0.02-0.004
	c0.147-0.028,4.969-12.477-0.952-15.847c-0.42-0.233-1.809-0.97-4.254-0.984c-7.957-0.06-14.786,8.243-17.227,11.237
	c-0.099,0.125-0.262,0.663-0.822,1.044c-1.183,0.8-3.082,0.328-4.093-0.124c-0.211-0.094-2.541-1.18-2.61-3.073
	c-0.03-0.813,0.363-1.484,0.661-1.904c9.083-12.891,20.837-13.693,20.837-13.693c2.512-0.167,7.584-0.52,11.617,2.277
	c4.104,2.841,5.014,7.462,5.177,12.31C305.69,95.512,304.935,104.072,303.913,107.975z M293.836,106.088
	c-1.287-0.952-2.918-0.967-4.254-0.984c-3.924-0.04-9.2,1.668-12.134,5.832c-2.595,3.691-3.421,9.606,0.288,12.41
	c2.786,2.114,6.754,1.407,7.363,1.293c3.095-0.588,5.799-2.501,7.467-5.164c0.515-0.835,2.099-4.275,2.31-5.053
	C295.785,111.065,295.844,107.573,293.836,106.088z M251.17,125.327c-5.616,4.328-13.911,6.813-19.352,5.618
	c-5.936-1.299-8.597-6.254-8.657-6.257c-0.359-0.021-0.192,4.244-2.379,6.587c-1.548,1.669-4.806,2.953-7.098,1.516
	c-2.03-1.278-2.659-4.301-1.669-5.858c0.539-0.843,1.235-0.755,2.106-1.801c1.151-1.385,1.186-3.044,1.217-3.772
	c0.321-7.55,7.305-76.7,7.388-77.454c0.012-0.028,0.052-0.391,0.09-0.878c0.061-0.717,0.098-1.368,0.109-1.915
	c-0.811-2.995,0.173-6.003,2.434-7.545c0.281-0.186,3.196-2.113,6.045-0.615c1.838,0.969,2.905,2.971,2.722,4.958
	c-0.11,1.233-1.036,1.478-2.215,3.715c0,0-0.562,1.072-1.162,2.815c-2.448,7.093-4.405,42.403-4.428,42.815
	c-0.003,0.057-0.007,0.124-0.007,0.124c-0.054,0.948-0.095,0.965-0.076,0.985c0.273,0.304,5.967-5.912,12.473-7.932
	c0.418-0.13,6.854-1.92,12.979,0.741c12.725,5.529,10.766,21.592,10.723,22.703C262.373,104.913,261.7,117.217,251.17,125.327z
	 M253.809,96.663c-0.395-3.432-1.684-5.763-3.556-7.887c-2.822-3.196-7.772-4.391-11.816-3.556
	c-0.162,0.029-2.125,0.551-4.103,1.687c-10.097,5.801-10.297,20.178-10.297,22.463c0.244-0.245,0.594-0.571,1.053-0.9
	c0.146-0.107,2.285-1.608,5.101-1.63c2.956-0.023,6.177,1.457,7.768,4.286c1.71,3.037,1.376,7.474-1.545,9.517
	c-1.628,1.146-4.346,1.73-6.045,0.615c-2.482-1.256-3.756-4.565-2.558-7.83c-0.02-0.001-1.17-0.384-1.997-0.114
	c-0.562,0.189-0.878,0.641-1.053,0.9c-1.148,1.692-0.349,4.533-0.273,4.787c0.722,2.442,2.8,5.692,6.606,7.101
	c4.051,1.499,7.739,0.067,9.04-0.444c5.327-2.078,7.759-6.607,9.587-10.018C253.968,107.727,254.235,100.433,253.809,96.663z
	 M153.882,129.081c0.354,0.456,0.876,0.936,1.53,1.394c0.368,0.257,1.194,0.835,2,1c1.508,0.308,3.321-0.729,4.658-2.537
	c0.342-0.463,0.274-1.214,0.241-1.604c-0.619-7.409-0.809-17.385,2.101-27.858c0.803-2.888,1.98-6.237,5-9
	c0.832-0.761,5.47-5.003,12-4c4.998,0.768,8.364,4.186,10,7c1.289,2.217,1.583,4.192,2,7c0.772,5.193,0.243,9.352,0,11
	c-2.62,17.794-4.413,31.658-16,42c-8.677,7.745-18.411,9.957-23,11c-1.148,0.261-11.035,2.429-13-1c-0.363-0.633-0.315-1.211-1-2
	c-1.446-1.664-4.729-2.623-7-1c-1.899,1.357-1.994,3.736-2,4c-0.074,3.104,2.729,5.98,5,6c1.287,0.011,2.148-0.907,5-1
	c0.442-0.014,0.759,0,1,0c4.124,0,6.905,0,7,0c2.088-0.005,35.77-3.581,51-32c7.41-13.827,12.571-37.491,1-50
	c-0.566-0.612-8.457-8.914-18-8c-9.036,0.865-17.373,9.783-18,9c-0.115-0.143,0.183-0.418,0.44-1.234
	c0.508-1.611,0.348-3.629-0.44-4.766c-2.314-3.339-9.208-2.107-10,0c-0.17,0.452-0.036,0.882,0,1
	c0.246,0.806,0.405,1.628,0.509,2.46c0.39,3.131,0.675,20.651-2.389,41.717C153.493,127.924,153.412,128.475,153.882,129.081z
	 M134.764,125.603c-0.024,0.244-0.038,0.592,0.017,1c0.237,1.741,1.556,3.223,3.069,3.947c0.158,0.076,2.627,1.207,4.999-0.087
	c2.467-1.346,2.823-4.313,2.912-5.052c0.122-1.011-0.002-1.789-0.035-2c-1.316-8.493,0.827-29.358,1.441-32.03
	c0.391-1.701,0.947-3.017,0.947-3.017c0.539-1.274,0.845-1.418,0.965-2.017c0.458-2.284-0.956-4.821-3.104-5.947
	c-2.312-1.211-5.478-0.79-6.981,1.122c-0.709,0.903-1.397,2.581-0.93,4.017c0.268,0.824,0.901,1.52,1.052,2.982
	c0,0,0.01,0.472,0.017,1C139.288,100.709,138.046,112.769,134.764,125.603 M346.764,125.603c-0.024,0.244-0.038,0.592,0.017,1
	c0.237,1.741,1.556,3.223,3.069,3.947c0.158,0.076,2.627,1.207,4.999-0.087c2.467-1.346,2.823-4.313,2.912-5.052
	c0.122-1.011-0.002-1.789-0.035-2c-1.316-8.493,0.827-29.358,1.441-32.03c0.391-1.701,0.947-3.017,0.947-3.017
	c0.539-1.274,0.845-1.418,0.965-2.017c0.457-2.284-0.956-4.821-3.104-5.947c-2.312-1.211-5.478-0.79-6.981,1.122
	c-0.709,0.903-1.397,2.581-0.93,4.017c0.268,0.824,0.901,1.52,1.052,2.982c0,0,0.01,0.472,0.017,1
	C351.288,100.709,350.046,112.769,346.764,125.603 M87.412,82.675c-1.708,0.985-6.608,3.81-8,9.552
	c-1.782,7.348,3.649,13.417,4,13.797c-0.936,0.5-3.501,2.034-5,5.307c0,0-1.322,2.887-1,6.368c0.191,2.064,0.969,4.059,2.209,5.879
	c3.126,4.587,8.532,6.743,13.812,5.939c0.324-0.049,0.651-0.097,0.979-0.143c8.263-1.161,15.817-0.989,22.354-0.211
	c0.992,0.118,1.926,0.506,2.809,1.001c2.786,1.561,5.996,1.167,7.837-0.79c1.756-1.866,2.371-5.266,1-7.429
	c-0.923-1.457-2.498-1.962-3-2.123c-1.003-0.322-1.932-0.322-4,0c-2.175,0.339-3.21,0.751-5,1.061c-2.132,0.37-5.772,0.896-15,1.061
	c-2.328,0.042-5.424,0.068-9.103,0.014c-0.709-0.01-1.427-0.13-2.079-0.423c-2.059-0.925-3.535-2.792-3.818-4.898
	c-0.445-3.314,2.104-6.917,6-7.429c0.193,0.003,0.384,0.007,0.574,0.01c16.446,0.278,26.228-0.108,26.936-0.108
	c0.433-0.001,0.935,0.024,1.489,0.099c2.181,0.293,2.657,1.169,4,1.061c0.387-0.031,3.515-0.337,5-3.184
	c1.258-2.411,0.87-5.745-1-7.429c-1.706-1.537-4.084-1.194-5-1.061c-1.288,0.186-1.96,0.624-3,1.061
	c-1.589,0.668-4.015,1.323-7.471,1.026c-7.518,0.011-14.981,0.022-22.499,0.033c-1.688,0.093-3.259-0.71-4.03-2.121
	c-0.982-1.798-0.203-3.739,0-4.245c0.658-1.64,1.881-2.458,3-3.184c2.544-1.65,5.161-2.063,7-2.123
	c16.79-0.869,23.309-0.176,25,1.061c0.126,0.092,0.87,0.659,2,1.061c0.801,0.285,2.856,1.024,5,0c0.538-0.257,2.198-1.161,3-3.184
	c1.076-2.715-0.028-5.936-2-7.429c-1.579-1.196-3.46-1.091-4-1.061c-1.734,0.097-2.504,0.871-5,1.061c-0.806,0.061-1.413,0.033-2,0
	c-8.264-0.462-17.004-2.031-26,0C91.343,81.019,89.557,81.438,87.412,82.675z M324.412,43.099c-1.021,4.025-13.186,52.553-11,71.486
	c0.602,5.217,2.378,8.916,5,11.592c3.25,3.317,9.229,6.523,15,4.83c0.433-0.127,5.155-1.587,7-5.796
	c0.287-0.656,1.846-4.211,0-5.796c-0.802-0.688-2.071-0.855-3.432-0.549c-0.869,0.195-1.47,0.957-1.501,1.819
	c-0.032,0.888-0.255,1.978-1.066,2.594c-1.777,1.35-5.236-0.437-7-1.932c-3.467-2.938-3.843-7.673-4-9.66
	c-0.117-1.483,0-22.219,4.734-54.155c0.138-0.933,0.176-1.885,0.266-2.841c0.778-6.986,2.467-11.521,4-14.49
	c0.633-1.225,2.079-3.81,1-5.796c-0.828-1.524-2.701-1.88-3-1.932c-2.965-0.514-6.098,2.026-6,3.864
	C324.453,37.108,325.213,41.817,324.412,43.099z"/>
<g>
	<defs>
		
			<rect id="SVGID_00000124153502665927138520000000048247670484389005_" x="80.731" y="96.554" transform="matrix(0.0744 -0.9972 0.9972 0.0744 -2.592 205.263)" width="57.102" height="14.947"/>
	</defs>
	<clipPath id="SVGID_00000137127755149211036580000017219592458727168191_">
		<use xlink:href="#SVGID_00000124153502665927138520000000048247670484389005_"  overflow="visible"/>
	</clipPath>
	<g clip-path="url(#SVGID_00000137127755149211036580000017219592458727168191_)">
		<path fill="#FFFFFF" d="M113.711,102.453c-0.764,8.776-4.812,15.481-6.74,17.736c-4.283-12.588-0.901-26.56,1.325-31.972
			C111.76,91.563,113.349,99.102,113.711,102.453z"/>
		
			<ellipse transform="matrix(0.0529 -0.9986 0.9986 0.0529 -4.4256 206.0089)" fill="#4C1502" cx="106.396" cy="105.338" rx="5.5" ry="2.598"/>
		<path fill="#8D330C" d="M116.7,104.747c0.356-6.176-1.464-15.128-3.319-20.971c-1.523-4.799-1.465-7.6-1.422-8.258
			c0.002-0.035,0.004-0.064,0.007-0.087c0.002-0.033,0.004-0.054,0.005-0.061c-0.001,0.01-0.006,0.041-0.017,0.097
			c0,0.001,0,0.001,0,0.002c-0.014,0.066-0.037,0.166-0.076,0.305c-0.038,0.137-0.091,0.312-0.165,0.528
			c-0.001,0.001-0.001,0.003-0.002,0.004c-0.042,0.123-0.091,0.259-0.147,0.409c-0.245,0.652-0.635,1.572-1.255,2.822
			c-2.857,5.762-8.055,16.285-8.506,24.099c-0.34,5.915,3.42,14.585,5.191,20.312c0.399,1.293,0.704,2.441,0.937,3.445v0.001
			c0.01,0.045,0.02,0.089,0.03,0.133c0.483,2.116,0.748,4.772,0.763,4.863c0.176-0.962,0.79-3.819,2.377-7.166
			C113.863,119.396,116.295,111.782,116.7,104.747z M106.849,118.603c0,0-0.002,0.003-0.003,0.004
			c-0.248-2.545-0.416-4.975-0.501-7.331c-0.017-0.472-0.031-0.941-0.041-1.407c-0.006-0.27-0.011-0.54-0.015-0.808
			c-0.001-0.09-0.003-0.179-0.003-0.269c-0.027-2.324,0.032-4.587,0.179-6.832c0.031-0.473,0.066-0.946,0.105-1.418
			c0.272-3.314,0.74-6.607,1.414-10.018c0.001,0.002,0.003,0.004,0.005,0.006C115.664,100.557,110.548,113.225,106.849,118.603z"/>
		<path fill="none" stroke="#4C1502" stroke-width="0.6" stroke-linecap="round" d="M106.849,118.831
			c-1.819-15.571,1.14-28.073,1.14-28.073c0.615-3.59,3.655-11.011,3.944-14.883"/>
		<path fill="none" stroke="#4C1502" stroke-width="0.6" stroke-linecap="round" d="M106.849,118.831
			c0.512,2.719,2.138,10.201,1.878,13.682"/>
	</g>
</g>
</svg>
