<svg width="35" height="28" viewBox="0 0 35 28" fill="none" xmlns="http://www.w3.org/2000/svg">
<path d="M10.3125 12.0888C13.0739 12.0888 15.3125 14.3274 15.3125 17.0888V22.7688C15.3125 25.5302 13.0739 27.7688 10.3125 27.7688H5C2.23858 27.7688 0 25.5302 0 22.7688V11.8648C0 3.49989 5.95806 0.829292 8.60359 0.0557812C9.32549 -0.155289 10.0458 0.251521 10.3362 0.945327C10.7529 1.94104 10.1189 3.09776 9.13977 3.55208C7.86736 4.14249 6.37804 5.22835 5.90625 7.1608C5.58146 8.15854 5.61834 9.09456 5.79315 9.87721C6.12865 11.3794 7.68082 12.0888 9.21998 12.0888H10.3125ZM30 12.0888C32.7614 12.0888 35 14.3274 35 17.0888V22.7688C35 25.5302 32.7614 27.7688 30 27.7688H24.6875C21.9261 27.7688 19.6875 25.5302 19.6875 22.7688V11.8648C19.6875 3.49989 25.6456 0.829292 28.2911 0.0557812C29.013 -0.155289 29.7333 0.251521 30.0237 0.945327C30.4404 1.94104 29.8064 3.09776 28.8273 3.55208C27.5549 4.14249 26.0655 5.22835 25.5938 7.1608C25.269 8.15854 25.3058 9.09456 25.4806 9.87721C25.8162 11.3794 27.3683 12.0888 28.9075 12.0888H30Z" fill="#8BAE66"/>
</svg>
