<svg width="15" height="14" viewBox="0 0 15 14" fill="none" xmlns="http://www.w3.org/2000/svg">
<g clip-path="url(#clip0_74_100)">
<path d="M0.0990411 13.681C0.0966727 13.6016 0.168196 13.5665 0.211774 13.5185C1.94871 11.6121 3.68517 9.70571 5.42921 7.8057C5.55189 7.67242 5.55568 7.59575 5.44958 7.45061C3.6937 5.05265 1.94492 2.64968 0.195195 0.248068C0.155407 0.193755 0.117988 0.137618 0.0568848 0.0495312C0.16346 0.0495312 0.237352 0.0495312 0.311244 0.0495312C1.55367 0.0495312 2.79562 0.052726 4.03805 0.0454235C4.20526 0.0445107 4.30331 0.0901513 4.40041 0.224335C5.52205 1.77566 6.65411 3.32014 7.77575 4.87192C7.88707 5.02573 7.93491 5.05722 8.08032 4.89702C9.50132 3.3279 10.9327 1.7679 12.3556 0.201058C12.4589 0.0874129 12.5612 0.0413159 12.7161 0.0463364C13.0439 0.0568337 13.3721 0.0495312 13.7463 0.0495312C13.2708 0.572116 12.8236 1.06367 12.3755 1.55521C11.1203 2.93174 9.8651 4.30826 8.60751 5.68295C8.5232 5.77514 8.47678 5.83493 8.57246 5.96547C10.4179 8.48711 12.2562 11.0142 14.0978 13.5391C14.1253 13.5765 14.1319 13.6445 14.2067 13.6358C14.1641 13.7298 14.0793 13.6783 14.0182 13.6783C12.6659 13.6819 11.3131 13.681 9.96078 13.681C9.94467 13.6477 9.93283 13.6116 9.91104 13.582C8.68235 11.8933 7.45319 10.205 6.22355 8.51723C6.1975 8.48118 6.16292 8.4506 6.12503 8.40998C6.07766 8.45973 6.0355 8.50217 5.99524 8.54599C5.35769 9.24474 4.71966 9.94259 4.08352 10.6427C3.16366 11.655 2.2457 12.6687 1.32678 13.6815H0.0990411V13.681ZM1.79619 0.93861C1.80614 1.05043 1.87292 1.09881 1.9165 1.15769C2.58484 2.06365 3.25508 2.96779 3.92579 3.87239C6.10134 6.80708 8.27642 9.74177 10.4539 12.6751C10.505 12.744 10.5301 12.8504 10.6485 12.8508C11.2492 12.8517 11.8498 12.8508 12.4589 12.8508C12.4399 12.7372 12.3722 12.6815 12.3239 12.6162C11.3633 11.3173 10.4013 10.0188 9.43927 8.72033C7.56024 6.18545 5.6812 3.65057 3.80122 1.11661C3.74059 1.03446 3.70033 0.934046 3.55728 0.935872C2.97657 0.942261 2.39538 0.93861 1.79714 0.93861H1.79619Z" fill="#F2F7D1"/>
</g>
<defs>
<clipPath id="clip0_74_100">
<rect width="14.21" height="13.6922" fill="white"/>
</clipPath>
</defs>
</svg>
