<svg width="19" height="14" viewBox="0 0 19 14" fill="none" xmlns="http://www.w3.org/2000/svg">
<path d="M19 6.93967C19 6.89227 19 6.83841 18.9979 6.77593C18.9958 6.60142 18.9915 6.40536 18.9873 6.19637C18.9703 5.59526 18.9406 4.99631 18.894 4.43182C18.8304 3.65405 18.7371 3.00554 18.6098 2.51862C18.4756 2.01048 18.2124 1.54704 17.8466 1.17463C17.4808 0.80222 17.0252 0.533879 16.5253 0.39643C15.9252 0.232687 14.7504 0.131425 13.0964 0.0689442C12.3097 0.0387811 11.4679 0.0193904 10.626 0.0086179C10.3312 0.00430889 10.0577 0.00215451 9.81172 0H9.18828C8.9423 0.00215451 8.66875 0.00430889 8.374 0.0086179C7.53214 0.0193904 6.69029 0.0387811 5.90357 0.0689442C4.24955 0.133579 3.07266 0.234841 2.47467 0.39643C1.97464 0.533541 1.51887 0.801769 1.15303 1.17423C0.787183 1.5467 0.524112 2.01031 0.390179 2.51862C0.260826 3.00554 0.169643 3.65405 0.106027 4.43182C0.059375 4.99631 0.0296875 5.59526 0.0127232 6.19637C0.00636157 6.40536 0.00424104 6.60142 0.0021205 6.77593C0.0021205 6.83841 0 6.89227 0 6.93967V7.06033C0 7.10772 -3.23884e-08 7.16159 0.0021205 7.22407C0.00424104 7.39858 0.00848211 7.59464 0.0127232 7.80363C0.0296875 8.40474 0.059375 9.00369 0.106027 9.56817C0.169643 10.346 0.262946 10.9945 0.390179 11.4814C0.661607 12.5134 1.45893 13.3278 2.47467 13.6036C3.07266 13.7673 4.24955 13.8686 5.90357 13.9311C6.69029 13.9612 7.53214 13.9806 8.374 13.9914C8.66875 13.9957 8.9423 13.9978 9.18828 14H9.81172C10.0577 13.9978 10.3312 13.9957 10.626 13.9914C11.4679 13.9806 12.3097 13.9612 13.0964 13.9311C14.7504 13.8664 15.9273 13.7652 16.5253 13.6036C17.5411 13.3278 18.3384 12.5155 18.6098 11.4814C18.7392 10.9945 18.8304 10.346 18.894 9.56817C18.9406 9.00369 18.9703 8.40474 18.9873 7.80363C18.9936 7.59464 18.9958 7.39858 18.9979 7.22407C18.9979 7.16159 19 7.10772 19 7.06033V6.93967ZM17.4732 7.05171C17.4732 7.09695 17.4732 7.14651 17.4711 7.20468C17.469 7.37273 17.4647 7.55802 17.4605 7.75839C17.4456 8.33149 17.416 8.90458 17.3714 9.43675C17.3142 10.1305 17.2336 10.6993 17.1339 11.0806C17.0025 11.5783 16.6165 11.9726 16.1288 12.104C15.6835 12.2247 14.5617 12.3216 13.0371 12.3798C12.2652 12.41 11.4339 12.4294 10.6048 12.4401C10.3143 12.4444 10.045 12.4466 9.80324 12.4466H9.19676L8.3952 12.4401C7.56607 12.4294 6.73694 12.41 5.96295 12.3798C4.43828 12.3195 3.3144 12.2247 2.87121 12.104C2.38348 11.9705 1.99754 11.5783 1.86607 11.0806C1.76641 10.6993 1.68583 10.1305 1.62857 9.43675C1.58404 8.90458 1.55647 8.33149 1.53951 7.75839C1.53315 7.55802 1.53103 7.37058 1.52891 7.20468C1.52891 7.14651 1.52679 7.0948 1.52679 7.05171V6.94829C1.52679 6.90305 1.52679 6.85349 1.52891 6.79532C1.53103 6.62727 1.53527 6.44198 1.53951 6.24161C1.55435 5.66851 1.58404 5.09541 1.62857 4.56325C1.68583 3.8695 1.76641 3.30071 1.86607 2.91936C1.99754 2.42167 2.38348 2.02739 2.87121 1.89597C3.31652 1.77532 4.43828 1.67836 5.96295 1.62019C6.73482 1.59003 7.56607 1.57064 8.3952 1.55986C8.68571 1.55556 8.95502 1.5534 9.19676 1.5534H9.80324L10.6048 1.55986C11.4339 1.57064 12.2631 1.59003 13.0371 1.62019C14.5617 1.68052 15.6856 1.77532 16.1288 1.89597C16.6165 2.02955 17.0025 2.42167 17.1339 2.91936C17.2336 3.30071 17.3142 3.8695 17.3714 4.56325C17.416 5.09541 17.4435 5.66851 17.4605 6.24161C17.4669 6.44198 17.469 6.62942 17.4711 6.79532C17.4711 6.85349 17.4732 6.9052 17.4732 6.94829V7.05171ZM7.61272 9.88704L12.5324 6.97845L7.61272 4.11296V9.88704Z" fill="#F2E3C1"/>
</svg>
